<svg xmlns="http://www.w3.org/2000/svg" width="898.806" height="248.665" viewBox="0 0 898.806 248.665"><defs><style>.a{fill:rgba(158,158,158,0.4);fill-rule:evenodd;}</style></defs><path class="a" d="M600.706,91.992a13.07,13.07,0,1,0,13.683-13.04l.014,3.341a9.724,9.724,0,1,1-1.33,0l-.014-3.34a13.076,13.076,0,0,0-12.352,13.035Zm8.505,0a4.562,4.562,0,0,1,3.882-4.509l-.015-3.856a8.409,8.409,0,1,0,1.33,0l.015,3.854a4.563,4.563,0,1,1-5.212,4.514Zm47.574-71.941,2.3-2.921a4.567,4.567,0,1,1,7.769-2.156l3.48,1.319a8.268,8.268,0,1,0-13.547,3.758Zm13.071-2.515-3.475-1.318a4.555,4.555,0,0,1-6.253,1.736l-2.3,2.926a8.246,8.246,0,0,0,12.03-3.344Zm76.861,18.9-.63,3.283a9.716,9.716,0,0,1,3.688,16.914l1.936,2.718a13.044,13.044,0,0,0-4.994-22.915Zm-2.187,4.334a8.323,8.323,0,0,0-.924-.054,8.4,8.4,0,1,0,0,16.8,8.325,8.325,0,0,0,4.309-1.2l-2.232-3.134a4.564,4.564,0,1,1-2.077-8.628c.066,0,.131.007.2.01l.728-3.791Zm7.475,8.346a8.408,8.408,0,0,0-6.17-8.089l-.726,3.783a4.557,4.557,0,0,1,1.656,7.6L749,55.545a8.381,8.381,0,0,0,3-6.428Zm-1.378,11.006-1.94-2.725a9.74,9.74,0,1,1-3.907-17.932l.63-3.279a13.065,13.065,0,1,0,5.216,23.936ZM785.916,96.6l-3.383,1.845a8.431,8.431,0,1,0-.637-1.168l3.383-1.845a4.572,4.572,0,1,1,.638,1.169Zm-8.121,2.914,2.933-1.6a9.749,9.749,0,1,1,.638,1.168l-2.932,1.6a13.141,13.141,0,1,0-.638-1.167ZM599.376,91.992a14.419,14.419,0,0,1,13.678-14.383l-.067-17.1a4.562,4.562,0,1,1,5.165-5.14l22.775.2a4.56,4.56,0,0,1,3.883-3.813l.11-11.936a4.562,4.562,0,1,1,2.974-8.464l8.07-10.258a9.593,9.593,0,1,1,15.62-4.33l10.429,3.957a4.557,4.557,0,0,1,7.358-.848L702.414,11.1A4.564,4.564,0,1,1,711.1,9.132a4.642,4.642,0,0,1-.122,1.031l33.212,13.052a4.564,4.564,0,1,1,3.957,6.835c-.067,0-.131-.008-.2-.011l-.975,5.078a14.388,14.388,0,0,1,5.516,25.323l4.418,6.2a4.567,4.567,0,1,1,.875,8.462l-12.365,28.235a4.555,4.555,0,0,1,1.788,5.638l2.738,1.659a4.56,4.56,0,0,1,7.16.166l19.513-10.643a14.431,14.431,0,1,1,.638,1.167l-19.514,10.643a4.563,4.563,0,1,1-8.488-.2l-2.737-1.659a4.575,4.575,0,1,1-2.317-7.309L756.56,74.57a4.556,4.556,0,0,1-.741-7.157l-4.415-6.2a14.4,14.4,0,1,1-5.74-26.348l.974-5.075a4.549,4.549,0,0,1-2.94-5.338L710.487,11.4a4.555,4.555,0,0,1-7.329.8l-13.045,8.778a4.564,4.564,0,1,1-8.68,1.967,4.647,4.647,0,0,1,.109-.979L671.1,18.009a9.576,9.576,0,0,1-14.1,3.92l-8.063,10.251a4.557,4.557,0,0,1-2.688,7.652l-.112,11.937a4.562,4.562,0,1,1-5.224,5.131l-22.775-.2a4.559,4.559,0,0,1-3.823,3.8l.068,17.1a14.4,14.4,0,1,1-15.008,14.385Zm-433.134-13.9a4.56,4.56,0,0,1-2.287,3.952l1.415,3.581a8.15,8.15,0,1,0-1.233.5l-1.418-3.59a4.563,4.563,0,1,1,3.525-4.44Zm-17.635,0a13.04,13.04,0,0,0,17.246,12.373l-1.227-3.1a9.841,9.841,0,1,1,1.234-.5l1.229,3.111a13.065,13.065,0,1,0-18.482-11.882Zm63.18,19.744,3.2-2.153a4.574,4.574,0,1,1,.743,1.1l-3.195,2.153a8.387,8.387,0,1,0-.745-1.1ZM147.275,78.092a14.4,14.4,0,1,1,20.306,13.129l3.922,9.921a4.551,4.551,0,0,1,5.436,5.663l9.186,4.075a4.554,4.554,0,0,1,7.226-.633l17.331-11.67a9.773,9.773,0,1,1,.745,1.1l-17.333,11.67a4.567,4.567,0,1,1-8.509.747l-9.186-4.076a4.563,4.563,0,1,1-6.132-6.391l-3.922-9.92a14.394,14.394,0,0,1-19.07-13.619Zm106.4,91.124c0,.1-.016.2-.016.306a8.412,8.412,0,1,0,.162-1.629l3.832.447a4.569,4.569,0,1,1-.153,1.321l-3.826-.445Zm21.454.306a13.063,13.063,0,0,0-25.945-2.168l3.316.386a9.7,9.7,0,1,1-.17,1.783c0-.156.016-.307.023-.461l-3.321-.387c-.019.282-.044.562-.044.848a13.071,13.071,0,0,0,26.142,0Zm-58.364,49.5-3.457,1.7a4.563,4.563,0,0,1-8.45,3.385l-3.677,1.159a8.393,8.393,0,0,0,15.583-6.242Zm-15.983,4.972,3.677-1.159a4.561,4.561,0,0,1,8.262-3.31l3.453-1.7a8.386,8.386,0,0,0-15.392,6.164ZM144.4,211.976l-3.009-1.473a9.721,9.721,0,1,1-14.753-12.228l-2.006-2.683A13.064,13.064,0,1,0,144.4,211.976Zm-3.618-3.254A8.384,8.384,0,0,0,128.5,198.545l2.3,3.08a4.565,4.565,0,0,1,6.521,5.4l3.458,1.692Zm-16.205-3.081a8.391,8.391,0,0,0,15.617,4.275l-3.455-1.692a4.565,4.565,0,1,1-7-5.8l-2.3-3.08a8.376,8.376,0,0,0-2.861,6.3Zm1.12-10.849,2.006,2.684a9.716,9.716,0,0,1,14.279,11.833l3.008,1.473A13.063,13.063,0,0,0,125.7,194.793Zm4.509-49.964,3.154-2.206a4.58,4.58,0,1,1,.764,1.09l-3.161,2.211a8.59,8.59,0,1,0-.756-1.095Zm131.85,39.1a14.417,14.417,0,0,1-14.4-14.4c0-.337.015-.671.039-1l-6.912-.806a4.558,4.558,0,0,1-7.676,2l-19.774,14.274A4.552,4.552,0,0,1,212,189.752l10.955,20.436a4.563,4.563,0,1,1-2.214,6.878l-2.781,1.366a9.723,9.723,0,1,1-18.051,7.231l-8.371,2.639a4.518,4.518,0,0,1,.063.723,4.566,4.566,0,1,1-9.045-.872l-13.878-4.888a4.564,4.564,0,0,1-8.389-3.511l-14.69-7.19a14.4,14.4,0,1,1-21.766-18.04l-8.449-11.305a4.567,4.567,0,1,1,.776-7.5l9.183-8.09a4.543,4.543,0,0,1-.119-4.775l-5.5-4.374a4.565,4.565,0,1,1,.2-6.461l9.186-6.425a9.687,9.687,0,1,1,.759,1.093l-9.183,6.422a4.527,4.527,0,0,1-.134,4.331l5.5,4.374a4.564,4.564,0,1,1,.169,6.813l-9.183,8.091a4.557,4.557,0,0,1-.591,5.7l8.449,11.305a14.4,14.4,0,0,1,21.288,17.643l14.69,7.19a4.561,4.561,0,0,1,8.243,3.454L183,226.9a4.559,4.559,0,0,1,8.141.136l8.37-2.64a9.718,9.718,0,0,1,17.859-7.152l2.786-1.368a4.552,4.552,0,0,1,1.63-5.056l-10.956-20.435a4.564,4.564,0,1,1,1.725-7.473l19.774-14.274a4.562,4.562,0,1,1,8.608-2.241l6.909.8a14.4,14.4,0,1,1,14.211,16.726ZM492.1,127.1a8.4,8.4,0,0,0-15.824-3.917l3.543,1.524a4.624,4.624,0,1,1-.526,1.223l-3.541-1.524A8.4,8.4,0,1,0,492.1,127.1Zm-89.286-5.456a4.478,4.478,0,0,1-.024.461l3.731.943a8.393,8.393,0,1,0-.325,1.29l-3.732-.943a4.565,4.565,0,1,1,.35-1.751Zm7.927,3.842-3.249-.821a10.1,10.1,0,1,1,.323-1.29l3.25.821a13.056,13.056,0,1,0-.325,1.29ZM483.7,136.828a9.7,9.7,0,0,1-9.171-12.95L468.7,121.37a4.557,4.557,0,0,1-7.143.8l-12.577,9.147a4.565,4.565,0,1,1-8.585,1.656l-28.359-7.162a14.307,14.307,0,1,1,.327-1.29l28.358,7.163a4.564,4.564,0,0,1,7.475-1.443l12.579-9.147a4.569,4.569,0,1,1,8.45-.946l5.833,2.508a9.726,9.726,0,1,1,8.645,14.173Zm309.329,79.11a8.406,8.406,0,0,0-5.571-7.9l-1.005,3.714a4.564,4.564,0,1,1-5.94,6.147l-3.683,1.134a8.395,8.395,0,0,0,16.2-3.1Zm-16.593,1.826,3.686-1.135a4.532,4.532,0,0,1,4.506-5.256,4.642,4.642,0,0,1,.54.034l1.008-3.72a8.378,8.378,0,0,0-9.739,10.077Zm-103.42,11.344-3.349.167a9.726,9.726,0,1,1-14.2-8.809l-1.331-3.062a13.064,13.064,0,1,0,18.879,11.7Zm-4.749-1.094a8.369,8.369,0,0,0-11.047-6.854l1.536,3.533a4.547,4.547,0,0,1,5.667,3.513l3.844-.192ZM655.382,229.1a4.557,4.557,0,0,1,2.155-3.872L656,221.688a8.4,8.4,0,1,0,12.335,7.656l-3.845.192a4.565,4.565,0,0,1-9.107-.439Zm-.025-12.222,1.334,3.066a9.692,9.692,0,0,1,12.912,8.007l3.347-.167a13.029,13.029,0,0,0-17.594-10.905Zm-67.81-60.365-2.237-3.131a4.574,4.574,0,1,1,1.082-.774l2.24,3.135a8.531,8.531,0,1,0-1.085.769Zm155.486-14.293-2.839-2.412a4.581,4.581,0,1,1,.862-1.015l2.833,2.409a8.194,8.194,0,1,0-.857,1.019Zm51.327,73.721a9.723,9.723,0,0,1-18.8,3.488L759.39,224.4a4.563,4.563,0,1,1-9.072.692,4.538,4.538,0,0,1,.836-2.629l-8.517-8.1a4.561,4.561,0,0,1-7.279-2.656l-7.319.446a4.559,4.559,0,0,1-8.2,2.336l-21.043,11.327a4.563,4.563,0,1,1-8.766,2.444l-15.681.784v.054A14.4,14.4,0,1,1,653.6,216.173l-13.045-30a4.563,4.563,0,1,1-1.19-8.968c.036,0,.069,0,.1.005l4.409-25.8a4.555,4.555,0,0,1-1.983-1.3L606.156,173.7a4.564,4.564,0,1,1-7.3-1.355l-10.538-14.75a9.6,9.6,0,1,1,1.088-.765l10.533,14.74a4.546,4.546,0,0,1,5.482,1.02L641.165,149a4.563,4.563,0,1,1,4.132,2.635c-.035,0-.069,0-.1,0l-4.41,25.8a4.56,4.56,0,0,1,.993,8.211l13.045,30a14.392,14.392,0,0,1,19.458,12.073l15.682-.784a4.56,4.56,0,0,1,8.2-2.286l21.045-11.328a4.563,4.563,0,1,1,8.755-2.492l7.319-.445a4.563,4.563,0,1,1,8.274,3.019l8.517,8.1A4.554,4.554,0,0,1,759,223.131l16.165-4.975A9.718,9.718,0,0,1,786.526,206.4l7.3-26.95a4.565,4.565,0,0,1-1.077-7.711l-20.822-34.593a4.559,4.559,0,0,1-5.218-1.238l-13.6,8.6a4.566,4.566,0,1,1-8.04-.565l-1.019-.866a9.75,9.75,0,1,1,.857-1.018l1.023.87a4.553,4.553,0,0,1,6.466.454l13.6-8.6a4.564,4.564,0,1,1,7.07,1.676l20.823,34.593a4.565,4.565,0,1,1,1.76,8.778,4.639,4.639,0,0,1-.539-.034l-7.3,26.959a9.74,9.74,0,0,1,6.552,9.186ZM592.425,131.551a4.565,4.565,0,1,0,4.565-4.565,4.565,4.565,0,0,0-4.565,4.565ZM615.117,120.5a4.565,4.565,0,1,0-4.565,4.566,4.564,4.564,0,0,0,4.565-4.566Zm5.915,17.527a4.565,4.565,0,1,0,4.565-4.565,4.565,4.565,0,0,0-4.565,4.565Zm61.749-16.169a4.565,4.565,0,1,0,4.565-4.565A4.565,4.565,0,0,0,682.781,121.854Zm13.948-3.492a4.565,4.565,0,1,0,4.565-4.565A4.565,4.565,0,0,0,696.729,118.362ZM562.164,86.182a4.565,4.565,0,1,0-4.565,4.565,4.565,4.565,0,0,0,4.565-4.565Zm110.188,32.113a4.565,4.565,0,1,0-4.566,4.565,4.565,4.565,0,0,0,4.566-4.565Zm19.586,35.35a4.565,4.565,0,1,0-4.565,4.565,4.565,4.565,0,0,0,4.565-4.565Zm4.552,23a4.565,4.565,0,1,0-4.565-4.565A4.565,4.565,0,0,0,696.492,176.647ZM645.3,75.268a4.565,4.565,0,1,0-4.565,4.565A4.565,4.565,0,0,0,645.3,75.268Zm37.68-31.536a4.566,4.566,0,1,0-4.565-4.566,4.566,4.566,0,0,0,4.565,4.566ZM718.162,23.88a4.565,4.565,0,1,0,4.565,4.566,4.565,4.565,0,0,0-4.565-4.566ZM742.993,13.7a4.565,4.565,0,1,0-4.565-4.566,4.565,4.565,0,0,0,4.565,4.566ZM694.5,62.332A4.566,4.566,0,1,0,699.07,66.9a4.566,4.566,0,0,0-4.566-4.566ZM455.874,164.868a4.565,4.565,0,1,0-4.565,4.565,4.565,4.565,0,0,0,4.565-4.565Zm-27.336,1.686a4.565,4.565,0,1,0,4.565,4.566,4.565,4.565,0,0,0-4.565-4.566Zm27.92,7.2a4.565,4.565,0,1,0,4.565,4.565A4.565,4.565,0,0,0,456.459,173.752ZM296.237,192.186a4.565,4.565,0,1,0,4.565,4.565A4.565,4.565,0,0,0,296.237,192.186Zm10.734-9.573a4.565,4.565,0,1,0,4.565,4.565,4.565,4.565,0,0,0-4.565-4.565Zm77.951-29.236a4.565,4.565,0,1,0,4.565,4.565A4.565,4.565,0,0,0,384.922,153.376Zm11.816-50.492a4.565,4.565,0,1,0-4.565-4.565A4.565,4.565,0,0,0,396.738,102.884ZM358.344,125.5a4.565,4.565,0,1,0-4.565-4.565,4.565,4.565,0,0,0,4.565,4.565Zm-38.821,4.844a4.565,4.565,0,1,0,4.565,4.566,4.565,4.565,0,0,0-4.565-4.566ZM278.2,108.3a4.565,4.565,0,1,0-4.565-4.565A4.565,4.565,0,0,0,278.2,108.3Zm-9.691-9.593a4.566,4.566,0,1,0-4.566-4.566,4.565,4.565,0,0,0,4.566,4.566Zm-95.567,18.8a4.565,4.565,0,1,0,4.565,4.565,4.565,4.565,0,0,0-4.565-4.565Zm-24.821.952a4.565,4.565,0,1,0-4.566-4.566,4.565,4.565,0,0,0,4.566,4.566Zm-62.326,3.285a4.566,4.566,0,1,0,4.459,4.565,4.566,4.566,0,0,0-4.459-4.565ZM67.145,109.6a4.566,4.566,0,1,0-4.566-4.566A4.566,4.566,0,0,0,67.145,109.6ZM84.5,107.919a4.565,4.565,0,1,0-4.565-4.565A4.565,4.565,0,0,0,84.5,107.919Zm5.222-14.178a4.565,4.565,0,1,0-4.565-4.565,4.564,4.564,0,0,0,4.565,4.565Zm15.909,18.232a4.565,4.565,0,1,0-4.566-4.565,4.565,4.565,0,0,0,4.566,4.565Zm1.16,9.133a4.565,4.565,0,1,0,4.565-4.565,4.565,4.565,0,0,0-4.565,4.565Zm99.5,6.826a4.565,4.565,0,1,0-4.565,4.565,4.565,4.565,0,0,0,4.565-4.565Zm-7.315,19.716a4.565,4.565,0,1,0-4.565,4.565A4.565,4.565,0,0,0,198.98,147.647Zm-1.45,23.117a4.565,4.565,0,1,0-4.565-4.565A4.565,4.565,0,0,0,197.53,170.764Zm12.215-22.258a4.565,4.565,0,1,0,4.565-4.565A4.565,4.565,0,0,0,209.745,148.506Zm31.466-19.8a4.565,4.565,0,1,0,4.565-4.565A4.565,4.565,0,0,0,241.211,128.709Zm-88.4,38.65a4.565,4.565,0,1,0-4.566,4.565,4.565,4.565,0,0,0,4.566-4.565ZM111.8,138.4a4.565,4.565,0,1,0,4.565,4.565A4.565,4.565,0,0,0,111.8,138.4Zm18.508-12.024a4.565,4.565,0,1,0-4.565-4.565A4.565,4.565,0,0,0,130.308,126.374Zm32.848,80.311a4.565,4.565,0,1,0-4.565-4.566,4.565,4.565,0,0,0,4.565,4.566Zm11.773-20.274a4.565,4.565,0,1,0-4.565,4.565A4.565,4.565,0,0,0,174.93,186.412Zm261.648-64.743a4.565,4.565,0,1,0-4.565-4.565A4.565,4.565,0,0,0,436.578,121.669ZM399.29,166.12a4.565,4.565,0,1,0,4.565,4.565,4.565,4.565,0,0,0-4.565-4.565Zm-37.3,2.6a4.566,4.566,0,1,0,4.566,4.566,4.565,4.565,0,0,0-4.566-4.566Zm-91.42,39.361a4.565,4.565,0,1,0,4.566,4.565,4.565,4.565,0,0,0-4.566-4.565Zm-27.6-16.107a4.565,4.565,0,1,0-4.565,4.565,4.565,4.565,0,0,0,4.565-4.565Zm-2.128,41.889a4.565,4.565,0,1,0,4.565,4.565,4.565,4.565,0,0,0-4.565-4.565ZM176.6,205.751a4.565,4.565,0,1,0-4.565-4.565,4.565,4.565,0,0,0,4.565,4.565Zm48.092-75.541a4.566,4.566,0,1,0-4.566,4.566A4.566,4.566,0,0,0,224.695,130.209ZM188.013,91.1a4.565,4.565,0,1,0-4.565-4.565,4.565,4.565,0,0,0,4.565,4.565ZM132.781,75.766a4.565,4.565,0,1,0-4.565-4.566,4.565,4.565,0,0,0,4.565,4.566Zm-15.329,4.7a4.565,4.565,0,1,0-4.565-4.565,4.565,4.565,0,0,0,4.565,4.565Zm12.6,17.142a4.565,4.565,0,1,0,4.565-4.565,4.565,4.565,0,0,0-4.565,4.565Zm20.621,6.689a4.565,4.565,0,1,0-4.565-4.565A4.565,4.565,0,0,0,150.675,104.3Zm7.331,22.136A4.565,4.565,0,1,0,153.441,131,4.565,4.565,0,0,0,158.006,126.434Zm74.873-50.97a4.566,4.566,0,1,0-4.566-4.566,4.566,4.566,0,0,0,4.566,4.566Zm1.084,35.071a4.565,4.565,0,1,0,4.565-4.566,4.565,4.565,0,0,0-4.565,4.566Zm-2.681,40.4a4.565,4.565,0,1,0,4.565-4.565,4.565,4.565,0,0,0-4.565,4.565Zm53.75,1.972a4.565,4.565,0,1,0,4.566,4.565,4.565,4.565,0,0,0-4.566-4.565Zm75.2.989a4.565,4.565,0,1,0-4.565,4.566,4.565,4.565,0,0,0,4.565-4.566ZM477.75,97.887a4.566,4.566,0,1,0-4.566-4.566A4.566,4.566,0,0,0,477.75,97.887Zm19.821-6.854a4.566,4.566,0,1,0,4.566-4.565,4.566,4.566,0,0,0-4.566,4.565Zm-20.416,62.192a4.565,4.565,0,1,0,4.565,4.565,4.565,4.565,0,0,0-4.565-4.565Zm-34.678-42.871a4.565,4.565,0,1,0,4.565-4.566,4.565,4.565,0,0,0-4.565,4.566ZM280.213,179.5a4.566,4.566,0,1,0,4.567,4.566,4.566,4.566,0,0,0-4.567-4.566Zm15.768-52.013a4.565,4.565,0,1,0-4.565,4.565A4.565,4.565,0,0,0,295.981,127.488Zm11.225-10.225a4.565,4.565,0,1,0,4.565,4.565,4.564,4.564,0,0,0-4.565-4.565Zm66.1,8.874a4.565,4.565,0,1,0,4.565,4.565,4.564,4.564,0,0,0-4.565-4.565Zm17.754,15.583a4.566,4.566,0,1,0,4.566,4.566,4.566,4.566,0,0,0-4.566-4.566Zm74.395-4.559a4.566,4.566,0,1,0,4.565,4.566,4.566,4.566,0,0,0-4.565-4.566Zm30.3-55.426a4.565,4.565,0,1,0-4.565-4.565,4.565,4.565,0,0,0,4.565,4.565Zm162.229,54.639a4.566,4.566,0,1,0-4.566-4.566A4.565,4.565,0,0,0,657.987,136.374Zm184.56,30.053a4.565,4.565,0,1,0,4.565,4.565A4.565,4.565,0,0,0,842.547,166.428Zm-21.71-58.665a4.565,4.565,0,1,0-4.565-4.565A4.565,4.565,0,0,0,820.837,107.762ZM832.079,92a4.565,4.565,0,1,0-4.565-4.565A4.565,4.565,0,0,0,832.079,92Zm.119,21.254a4.565,4.565,0,1,0,4.565-4.565,4.565,4.565,0,0,0-4.565,4.565Zm-33.676,117.9a4.565,4.565,0,1,0,4.565,4.565A4.565,4.565,0,0,0,798.522,231.152Zm-14.989,3.609a4.565,4.565,0,1,0,4.565,4.565,4.565,4.565,0,0,0-4.565-4.565ZM829.2,216.818a4.566,4.566,0,1,0,4.566,4.565,4.565,4.565,0,0,0-4.566-4.565Zm45.839-57.78A4.565,4.565,0,1,0,879.6,163.6a4.565,4.565,0,0,0-4.565-4.565Zm-16.628,42.63a4.565,4.565,0,1,0,4.565,4.565,4.565,4.565,0,0,0-4.565-4.565ZM842.042,193.6a4.565,4.565,0,1,0,4.565,4.565,4.565,4.565,0,0,0-4.565-4.565Zm16.378-4.812a4.565,4.565,0,1,0-4.565,4.565,4.565,4.565,0,0,0,4.565-4.565ZM851.1,152.358a4.565,4.565,0,1,0,4.565-4.565,4.565,4.565,0,0,0-4.565,4.565ZM788.17,142.006a4.565,4.565,0,1,0,4.565-4.565,4.565,4.565,0,0,0-4.565,4.565ZM685.715,9.131a4.565,4.565,0,1,0-4.565-4.565A4.565,4.565,0,0,0,685.715,9.131ZM655.69,90.876a4.565,4.565,0,1,0-4.565,4.565,4.565,4.565,0,0,0,4.565-4.565Zm18.223,7.01a4.565,4.565,0,1,0-4.565,4.565,4.565,4.565,0,0,0,4.565-4.565Zm37.183-8.6a4.565,4.565,0,1,0-4.566,4.566,4.565,4.565,0,0,0,4.566-4.566Zm15.264-10.31a4.565,4.565,0,1,0-4.565-4.565,4.565,4.565,0,0,0,4.565,4.565Zm95.315,63.431a4.565,4.565,0,1,0-4.564,4.565,4.565,4.565,0,0,0,4.564-4.565ZM831,151.49a4.565,4.565,0,1,0-4.566,4.565A4.565,4.565,0,0,0,831,151.49ZM777.088,163.6a4.565,4.565,0,1,0-4.566,4.565,4.565,4.565,0,0,0,4.566-4.565Zm-50.407-17.973a4.565,4.565,0,1,0-4.565,4.565,4.565,4.565,0,0,0,4.565-4.565Zm-9.078,51.2a4.565,4.565,0,1,0-4.565-4.565A4.565,4.565,0,0,0,717.6,196.829Zm27.41-29.22a4.565,4.565,0,1,0,4.565,4.565,4.565,4.565,0,0,0-4.565-4.565Zm-1.4,17.845a4.566,4.566,0,1,0,4.566-4.566,4.566,4.566,0,0,0-4.566,4.566Zm-34.53-13.745a4.566,4.566,0,1,0-4.46-4.565A4.566,4.566,0,0,0,709.086,171.709Zm-3.486-36.2a4.565,4.565,0,1,0-4.565,4.565A4.565,4.565,0,0,0,705.6,135.507Zm-59.49-14.387a4.565,4.565,0,1,0-4.566-4.565,4.565,4.565,0,0,0,4.566,4.565Zm-71.947-4.554a4.566,4.566,0,1,0,4.566,4.566,4.565,4.565,0,0,0-4.566-4.566Zm-59.57-28.385a4.565,4.565,0,1,0-4.565-4.565,4.565,4.565,0,0,0,4.565,4.565Zm16.21-30.9a4.565,4.565,0,1,0-4.565-4.565A4.565,4.565,0,0,0,530.8,57.281ZM585.546,178a4.565,4.565,0,1,0,4.565,4.565A4.565,4.565,0,0,0,585.546,178Zm-17.35-4.342a4.566,4.566,0,1,0,4.566,4.566,4.565,4.565,0,0,0-4.566-4.566Zm-41.417,2.3a4.565,4.565,0,1,0,4.565,4.566,4.565,4.565,0,0,0-4.565-4.566Zm-33.536-3.329a4.566,4.566,0,1,0,4.566,4.566,4.566,4.566,0,0,0-4.566-4.566Zm3.306-15.97a4.565,4.565,0,1,0,4.565,4.565A4.565,4.565,0,0,0,496.549,156.66Zm32.232-5.751a4.565,4.565,0,1,0-4.565,4.565A4.565,4.565,0,0,0,528.781,150.909Zm7.692,5.075a4.565,4.565,0,1,0,4.565,4.565A4.565,4.565,0,0,0,536.472,155.984Zm77.646,62.6a4.565,4.565,0,1,0,4.565,4.565A4.565,4.565,0,0,0,614.118,218.588Zm95.664,19.9a4.565,4.565,0,1,0,4.565,4.564,4.564,4.564,0,0,0-4.565-4.564Zm21.23-11.82a4.566,4.566,0,1,0,4.566,4.566,4.565,4.565,0,0,0-4.566-4.566Zm72.49-18.912a4.565,4.565,0,1,0,4.565,4.565,4.564,4.564,0,0,0-4.565-4.565Zm4.569-12.546a4.565,4.565,0,1,0,4.565,4.565,4.565,4.565,0,0,0-4.565-4.565Zm21.361-18.934A4.565,4.565,0,1,0,834,180.844a4.565,4.565,0,0,0-4.565-4.565Zm9.492-41.14a4.565,4.565,0,1,0-4.565,4.565,4.565,4.565,0,0,0,4.565-4.565Zm-63.1-78.866a4.565,4.565,0,1,0-4.565-4.565A4.565,4.565,0,0,0,775.823,56.273Zm.7,68.346a4.565,4.565,0,1,0,4.565-4.566,4.564,4.564,0,0,0-4.565,4.566ZM727.655,177.2a4.565,4.565,0,1,0-4.565-4.565A4.565,4.565,0,0,0,727.655,177.2Zm-144.4-94.965a4.566,4.566,0,1,0-4.566,4.565A4.566,4.566,0,0,0,583.255,82.236Zm-2.943-10.8a4.565,4.565,0,1,0-4.566-4.566,4.565,4.565,0,0,0,4.566,4.566Zm84.863-10.593a4.565,4.565,0,1,0-4.565-4.565A4.565,4.565,0,0,0,665.175,60.839ZM566,98.769a4.565,4.565,0,1,0-4.566,4.565A4.565,4.565,0,0,0,566,98.769Zm94.612,54.514a4.565,4.565,0,1,0,4.565,4.565,4.565,4.565,0,0,0-4.565-4.565Zm15.976,16.15a4.565,4.565,0,1,0,4.565-4.565,4.565,4.565,0,0,0-4.565,4.565Zm217.656-24.919a4.565,4.565,0,1,0,4.566,4.565,4.565,4.565,0,0,0-4.566-4.565Zm-19.2-7.074a4.565,4.565,0,1,0,4.565,4.566,4.565,4.565,0,0,0-4.565-4.566Zm-12.051-36.216a4.565,4.565,0,1,0,4.565,4.565,4.565,4.565,0,0,0-4.565-4.565ZM733.7,100.368a4.565,4.565,0,1,0-4.565,4.565A4.565,4.565,0,0,0,733.7,100.368Zm-13.9-42.6a4.565,4.565,0,1,0,4.565,4.565,4.565,4.565,0,0,0-4.565-4.565Zm39.178,34.979a4.565,4.565,0,1,0,4.565-4.565,4.565,4.565,0,0,0-4.565,4.565Zm-76.2-13.767a4.565,4.565,0,1,0-4.565-4.565,4.565,4.565,0,0,0,4.565,4.565ZM722.248,120a4.565,4.565,0,1,0,4.565,4.565A4.565,4.565,0,0,0,722.248,120Zm-62.3,62.546a4.566,4.566,0,1,0,4.566,4.566,4.566,4.566,0,0,0-4.566-4.566Zm-56.956-25.972a4.565,4.565,0,1,0,4.565-4.565,4.565,4.565,0,0,0-4.565,4.565ZM530.17,79.166a4.565,4.565,0,1,0,4.565-4.565A4.565,4.565,0,0,0,530.17,79.166Zm28.909-19.676a4.565,4.565,0,1,0-4.565-4.565A4.565,4.565,0,0,0,559.079,59.491Zm12.55-8.07a4.566,4.566,0,1,0-4.566-4.566A4.566,4.566,0,0,0,571.63,51.421Zm18.72-12.192a4.565,4.565,0,1,0-4.565-4.565,4.565,4.565,0,0,0,4.565,4.565Zm15.159,8.066a4.565,4.565,0,1,0-4.566-4.565,4.564,4.564,0,0,0,4.566,4.565Zm23.818-22a4.566,4.566,0,1,0-4.566-4.566A4.566,4.566,0,0,0,629.327,25.292Zm12.886-10.215a4.566,4.566,0,1,0-4.565-4.566,4.566,4.566,0,0,0,4.565,4.566Zm143.926,28.3a4.565,4.565,0,1,0-4.565-4.565A4.565,4.565,0,0,0,786.14,43.375Zm2.5,20.737a4.565,4.565,0,1,0,4.565-4.565,4.565,4.565,0,0,0-4.565,4.565Zm66.117,74.639a4.566,4.566,0,1,0-4.566-4.566,4.566,4.566,0,0,0,4.566,4.566ZM818.63,166.8a4.566,4.566,0,1,0,4.566,4.566,4.566,4.566,0,0,0-4.566-4.566Zm-52.773,35.576a4.565,4.565,0,1,0,4.565-4.565,4.565,4.565,0,0,0-4.565,4.565Zm-80.142,1.969a4.565,4.565,0,1,0-4.565-4.565,4.565,4.565,0,0,0,4.565,4.565Zm-62.467.427a4.566,4.566,0,1,0,4.566,4.566,4.565,4.565,0,0,0-4.566-4.566Zm-26.012-4.858a4.565,4.565,0,1,0,4.565,4.565A4.565,4.565,0,0,0,597.237,199.912Zm-29.9-29.591a4.565,4.565,0,1,0-4.565-4.566,4.565,4.565,0,0,0,4.565,4.566Zm-18.332-54.045a4.566,4.566,0,1,0,4.566,4.565,4.565,4.565,0,0,0-4.566-4.565Zm-.127-12.625a4.565,4.565,0,1,0-4.565,4.565,4.565,4.565,0,0,0,4.565-4.565Zm-20.956,10.463a4.565,4.565,0,1,0,4.565-4.565,4.565,4.565,0,0,0-4.565,4.565ZM524.073,125.9a4.565,4.565,0,1,0-4.565,4.565A4.565,4.565,0,0,0,524.073,125.9ZM510.538,99.656a4.565,4.565,0,1,0,4.565,4.565A4.565,4.565,0,0,0,510.538,99.656Zm-8.8,7.832a4.565,4.565,0,1,0,4.565,4.565,4.565,4.565,0,0,0-4.565-4.565ZM441.883,96.434a4.566,4.566,0,1,0-4.566-4.566,4.566,4.566,0,0,0,4.566,4.566Zm-13.185,10.1a4.565,4.565,0,1,0-4.565-4.565,4.565,4.565,0,0,0,4.565,4.565Zm-11.543,34.4a4.565,4.565,0,1,0,4.565,4.566,4.565,4.565,0,0,0-4.565-4.566Zm-12.389,6.66a4.565,4.565,0,1,0,4.565,4.565,4.565,4.565,0,0,0-4.565-4.565ZM374.5,110.009a4.565,4.565,0,1,0-4.565,4.565A4.565,4.565,0,0,0,374.5,110.009Zm-4.75-24.324a4.565,4.565,0,1,0-4.565-4.565,4.565,4.565,0,0,0,4.565,4.565ZM348.475,98.768A4.565,4.565,0,1,0,343.91,94.2a4.565,4.565,0,0,0,4.565,4.565ZM344.588,133.6a4.566,4.566,0,1,0,4.566,4.566,4.566,4.566,0,0,0-4.566-4.566Zm-13.219,35.327a4.566,4.566,0,1,0,4.566,4.566,4.566,4.566,0,0,0-4.566-4.566Zm-12.48-8.45a4.565,4.565,0,1,0,4.565,4.565,4.565,4.565,0,0,0-4.565-4.565Zm-13.078-14.809a4.565,4.565,0,1,0-4.564,4.565,4.565,4.565,0,0,0,4.564-4.565Zm-25.73-3.884a4.565,4.565,0,1,0,4.565-4.565,4.565,4.565,0,0,0-4.565,4.565Zm-16.138,6.075a4.565,4.565,0,1,0-4.565-4.566,4.565,4.565,0,0,0,4.565,4.566Zm8.15,43.65a4.565,4.565,0,1,0-4.565,4.565,4.565,4.565,0,0,0,4.565-4.565Zm-25.588,24.3a4.566,4.566,0,1,0,4.565,4.566,4.566,4.566,0,0,0-4.565-4.566Zm-19.26,14.636a4.565,4.565,0,1,0,4.565,4.565,4.565,4.565,0,0,0-4.565-4.565Zm-42.19-42.96a4.565,4.565,0,1,0-4.565-4.565A4.565,4.565,0,0,0,185.053,187.49ZM174.5,150.06a4.565,4.565,0,1,0,4.565-4.565,4.565,4.565,0,0,0-4.565,4.565Zm-12.871.395a4.566,4.566,0,1,0-4.566-4.566,4.566,4.566,0,0,0,4.566,4.566Zm10.3,18.977a4.565,4.565,0,1,0-4.565-4.565,4.565,4.565,0,0,0,4.565,4.565Zm-68.236,51.3a4.565,4.565,0,1,0,4.565,4.565,4.565,4.565,0,0,0-4.565-4.565Zm11.8-3.386a4.565,4.565,0,1,0,4.565,4.565,4.565,4.565,0,0,0-4.565-4.565Zm21.95-33.226a4.565,4.565,0,1,0,4.565-4.566,4.564,4.564,0,0,0-4.565,4.566Zm12.034,41.952a4.565,4.565,0,1,0,4.565,4.565,4.565,4.565,0,0,0-4.565-4.565Zm-19.381,13.468a4.565,4.565,0,1,0,4.566,4.565,4.564,4.564,0,0,0-4.566-4.565ZM40.156,217.478a4.565,4.565,0,1,0,4.566,4.565,4.565,4.565,0,0,0-4.566-4.565ZM4.566,139.454a4.565,4.565,0,1,0,4.565,4.565,4.565,4.565,0,0,0-4.565-4.565ZM71.3,191.959a4.566,4.566,0,1,0-4.566,4.566,4.565,4.565,0,0,0,4.566-4.566Zm6.816,1.207a4.566,4.566,0,1,0,4.566,4.566,4.566,4.566,0,0,0-4.566-4.566Zm-1.868-23.2a4.565,4.565,0,1,0-4.565-4.565,4.565,4.565,0,0,0,4.565,4.565Zm13.1,6.323a4.565,4.565,0,1,0,4.565,4.565,4.565,4.565,0,0,0-4.565-4.565Zm14.512-2.178a4.566,4.566,0,1,0-4.566,4.566,4.565,4.565,0,0,0,4.566-4.566Zm-12.543-17.7a4.565,4.565,0,1,0,4.565-4.565A4.565,4.565,0,0,0,91.322,156.413Zm23.26,42.458a4.565,4.565,0,1,0-4.565,4.565,4.564,4.564,0,0,0,4.565-4.565Zm-44.059,8.248a4.565,4.565,0,1,0,4.565,4.565A4.565,4.565,0,0,0,70.523,207.119ZM48.3,194.09a4.565,4.565,0,1,0,4.565,4.565A4.564,4.564,0,0,0,48.3,194.09Zm-7.67-3.881a4.565,4.565,0,1,0-4.565-4.565,4.565,4.565,0,0,0,4.565,4.565ZM39.24,166.195l-3.838.368a4.562,4.562,0,1,1-.126-1.325l3.836-.367a8.364,8.364,0,1,0,.135,1.461c0-.047-.006-.091-.006-.137Zm7.06-29.3-3.521-1.575a4.6,4.6,0,1,1,.543-1.215l3.514,1.572A8.339,8.339,0,1,0,46.3,136.9ZM59.439,140a4.562,4.562,0,0,1-4.217,4.548l-1.064,15.182a4.564,4.564,0,1,1-5.407,5.549l-8.187.785c0,.088.013.174.013.263a9.807,9.807,0,1,1-.142-1.586l8.191-.786a4.559,4.559,0,0,1,4.2-4.315l1.063-15.182a4.547,4.547,0,0,1-3.412-5.693l-2.966-1.326a10.09,10.09,0,1,1,.536-1.218l2.973,1.33A4.563,4.563,0,0,1,59.439,140Zm-37.6.9a4.565,4.565,0,1,0-4.565-4.565,4.565,4.565,0,0,0,4.565,4.565Zm-2.58,13.522a4.565,4.565,0,1,1,4.565-4.565,4.565,4.565,0,0,1-4.565,4.565Z" transform="translate(0 -0.001)"/></svg>