<svg xmlns="http://www.w3.org/2000/svg" width="20" height="20" viewBox="0 0 24 24">
  <g id="Group_36764" data-name="Group 36764" transform="translate(-6509 16870)">
    <circle id="Ellipse_398" data-name="Ellipse 398" cx="12" cy="12" r="12" transform="translate(6509 -16870)" fill="#75c716"/>
    <path id="Icon_material-contact-phone" data-name="Icon material-contact-phone" d="M12.753,4.5H1.159A1.163,1.163,0,0,0,0,5.659v8.115a1.163,1.163,0,0,0,1.159,1.159H12.753a1.158,1.158,0,0,0,1.154-1.159l.006-8.115A1.163,1.163,0,0,0,12.753,4.5ZM4.637,6.239A1.739,1.739,0,1,1,2.9,7.978,1.737,1.737,0,0,1,4.637,6.239ZM8.115,13.2H1.159v-.58c0-1.159,2.319-1.8,3.478-1.8s3.478.638,3.478,1.8Zm2.232-2.319H11.3l.875,1.159L11.02,13.189a4.354,4.354,0,0,1-1.583-2.313,4.222,4.222,0,0,1,0-2.319A4.332,4.332,0,0,1,11.02,6.245L12.173,7.4,11.3,8.558h-.951a3.414,3.414,0,0,0,0,2.319Z" transform="translate(6514.044 -16866.824)" fill="#fff"/>
  </g>
</svg>
