<svg xmlns="http://www.w3.org/2000/svg" width="20" height="20" viewBox="0 0 24 24">
  <g id="Group_36787" data-name="Group 36787" transform="translate(-8391.057 17027)">
    <path id="Path_33901" data-name="Path 33901" d="M12,0A12,12,0,1,1,0,12,12,12,0,0,1,12,0Z" transform="translate(8391.057 -17027)" fill="#c9df00"/>
    <path id="Icon_awesome-user-nurse" data-name="Icon awesome-user-nurse" d="M1.8,8.987h2.57a3.928,3.928,0,0,0,5.234,0h2.57a.5.5,0,0,0,.446-.723,21.091,21.091,0,0,1-1.315-2.981,7.242,7.242,0,0,1-.323-2.249V1.5L6.99,0,3,1.5V3.033a7.232,7.232,0,0,1-.322,2.249A21.117,21.117,0,0,1,1.357,8.264a.5.5,0,0,0,.446.723ZM5.742,2.236A.156.156,0,0,1,5.9,2.08h.676V1.4a.156.156,0,0,1,.156-.156h.52a.156.156,0,0,1,.156.156V2.08h.676a.156.156,0,0,1,.156.156v.52a.156.156,0,0,1-.156.156H7.406v.676a.156.156,0,0,1-.156.156H6.73a.156.156,0,0,1-.156-.156V2.912H5.9a.156.156,0,0,1-.156-.156ZM4.494,4.993H9.486v1a2.5,2.5,0,1,1-4.993,0ZM9.967,9.986,6.99,12.962,4.013,9.986A4.184,4.184,0,0,0,0,14.161a1.816,1.816,0,0,0,1.816,1.816H12.164a1.816,1.816,0,0,0,1.816-1.816A4.184,4.184,0,0,0,9.967,9.986Z" transform="translate(8396.066 -17023.299)" fill="#fff"/>
  </g>
</svg>
