<svg xmlns="http://www.w3.org/2000/svg" width="20" height="20" viewBox="0 0 24 24">
  <g id="Group_36785" data-name="Group 36785" transform="translate(-8279.623 17551.258)">
    <circle id="Ellipse_438" data-name="Ellipse 438" cx="12" cy="12" r="12" transform="translate(8279.623 -17551.258)" fill="#dc4000"/>
    <path id="Icon_awesome-hospital-symbol" data-name="Icon awesome-hospital-symbol" d="M7.446,0a7.446,7.446,0,1,0,7.446,7.446A7.445,7.445,0,0,0,7.446,0ZM10.7,10.936a.233.233,0,0,1-.233.233h-1.4a.233.233,0,0,1-.233-.233V8.377H6.05v2.56a.233.233,0,0,1-.233.233h-1.4a.233.233,0,0,1-.233-.233V3.956a.233.233,0,0,1,.233-.233h1.4a.233.233,0,0,1,.233.233v2.56H8.842V3.956a.233.233,0,0,1,.233-.233h1.4a.233.233,0,0,1,.233.233Z" transform="translate(8284.176 -17546.705)" fill="#fff"/>
  </g>
</svg>
