<?xml version="1.0" standalone="no"?><!DOCTYPE svg PUBLIC "-//W3C//DTD SVG 1.1//EN" "http://www.w3.org/Graphics/SVG/1.1/DTD/svg11.dtd"><svg t="1632806683432" class="icon" viewBox="0 0 1024 1024" version="1.1" xmlns="http://www.w3.org/2000/svg" p-id="13360" xmlns:xlink="http://www.w3.org/1999/xlink" width="16" height="16"><defs><style type="text/css"></style></defs><path d="M984 744a40 40 0 0 0 40-40V380c0-88.224-71.776-160-160-160H720V160C720 71.776 648.224 0 560 0H160C71.776 0 0 71.776 0 160v744c0 66.168 53.832 120 120 120h160a40 40 0 0 0 40-40v-124h80V984a40 40 0 0 0 40 40h464c66.168 0 120-53.832 120-120a40 40 0 1 0-80 0c0 22.056-17.944 40-40 40H713.152c4.432-12.512 6.848-25.984 6.848-40V300h144c44.112 0 80 35.888 80 80V704a40 40 0 0 0 40 40z m-344 160c0 22.056-17.944 40-40 40H480v-124a40 40 0 0 0-40-40H280a40 40 0 0 0-40 40V944H120c-22.056 0-40-17.944-40-40V160c0-44.112 35.888-80 80-80h400c44.112 0 80 35.888 80 80v744zM320 460h80v80H320v-80z m160 0h80v80H480v-80z m-320 0h80v80H160v-80z m160 160h80v80H320v-80z m160 0h80v80H480v-80z m388-80h-80v-80h80v80z m0 160h-80v-80h80v80z m-80 80h80v80h-80v-80zM160 620h80v80H160v-80z m320-360a40 40 0 0 1-40 40h-40v40a40 40 0 1 1-80 0v-40h-40a40 40 0 1 1 0-80h40v-40a40 40 0 1 1 80 0v40h40a40 40 0 0 1 40 40z" fill="#4A90E2" p-id="13361"></path></svg>