<?xml version="1.0" standalone="no"?><!DOCTYPE svg PUBLIC "-//W3C//DTD SVG 1.1//EN" "http://www.w3.org/Graphics/SVG/1.1/DTD/svg11.dtd"><svg t="1632806588340" class="icon" viewBox="0 0 1024 1024" version="1.1" xmlns="http://www.w3.org/2000/svg" p-id="9461" xmlns:xlink="http://www.w3.org/1999/xlink" width="16" height="16"><defs><style type="text/css"></style></defs><path d="M869.934545 906.24H243.898182c-30.72 0-55.854545-25.134545-55.854546-55.854545V395.636364c0-30.72 25.134545-55.854545 55.854546-55.854546h626.036363c30.72 0 55.854545 25.134545 55.854546 55.854546v454.749091c0 30.72-25.134545 55.854545-55.854546 55.854545z" fill="#BBEBA1" p-id="9462"></path><path d="M661.876364 415.185455H451.956364c-30.72 0-55.854545-25.134545-55.854546-55.854546V258.327273c0-30.72 25.134545-55.854545 55.854546-55.854546h209.92c30.72 0 55.854545 25.134545 55.854545 55.854546v100.538182c0 31.185455-25.134545 56.32-55.854545 56.32z" fill="#BBEBA1" p-id="9463"></path><path d="M805.701818 862.952727H179.665455c-43.752727 0-79.127273-35.374545-79.127273-79.127272V329.076364c0-43.752727 35.374545-79.127273 79.127273-79.127273h626.036363c43.752727 0 79.127273 35.374545 79.127273 79.127273v454.749091c0 43.752727-35.84 79.127273-79.127273 79.127272zM179.665455 296.494545c-18.152727 0-32.581818 14.429091-32.581819 32.581819v454.749091c0 18.152727 14.429091 32.581818 32.581819 32.581818h626.036363c18.152727 0 32.581818-14.429091 32.581818-32.581818V329.076364c0-18.152727-14.429091-32.581818-32.581818-32.581819H179.665455z" fill="#353E43" p-id="9464"></path><path d="M653.498182 287.650909c-13.032727 0-23.272727-10.24-23.272727-23.272727V189.44c0-16.290909-13.498182-29.789091-29.789091-29.789091H384.930909c-16.290909 0-29.789091 13.498182-29.789091 29.789091v75.403636c0 13.032727-10.24 23.272727-23.272727 23.272728s-23.272727-10.24-23.272727-23.272728V189.44c0-41.890909 34.443636-76.334545 76.334545-76.334545H600.436364c41.890909 0 76.334545 34.443636 76.334545 76.334545v75.403636c0 12.567273-10.705455 22.807273-23.272727 22.807273zM564.596364 726.109091H420.770909v-94.952727H325.352727v-143.825455h94.952728V391.912727h143.825454v94.952728h94.952727v143.825454h-94.952727V726.109091z m-97.28-46.545455h50.734545v-94.952727h94.952727v-50.734545h-94.952727V438.458182H467.316364v94.952727H371.898182v50.734546h94.952727V679.563636z" fill="#353E43" p-id="9465"></path></svg>