<svg xmlns="http://www.w3.org/2000/svg" width="20" height="20" viewBox="0 0 24 24">
  <g id="Group_36786" data-name="Group 36786" transform="translate(-8388.949 17420)">
    <circle id="Ellipse_437" data-name="Ellipse 437" cx="12" cy="12" r="12" transform="translate(8388.949 -17420)" fill="#ffbf00"/>
    <path id="Icon_awesome-mobile-alt" data-name="Icon awesome-mobile-alt" d="M8.33,0H1.47A1.47,1.47,0,0,0,0,1.47V14.209a1.47,1.47,0,0,0,1.47,1.47H8.33a1.47,1.47,0,0,0,1.47-1.47V1.47A1.47,1.47,0,0,0,8.33,0ZM4.9,14.7a.98.98,0,1,1,.98-.98A.979.979,0,0,1,4.9,14.7Zm3.43-3.307a.369.369,0,0,1-.367.367H1.837a.369.369,0,0,1-.367-.367V1.837a.369.369,0,0,1,.367-.367H7.962a.369.369,0,0,1,.367.367Z" transform="translate(8395.949 -17416.154)" fill="#fff"/>
  </g>
</svg>
